<?xml version="1.0" encoding="UTF-8"?>
<!-- Generated by Pixelmator Pro 3.6.18 -->
<svg width="20" height="20" viewBox="0 0 20 20" xmlns="http://www.w3.org/2000/svg">
    <path id="Path" fill="#f2f2f2" stroke="none" visibility="hidden" d="M -6 -10 L 26 -10 C 28.209141 -10 30 -8.209141 30 -6 L 30 26 C 30 28.209141 28.209141 30 26 30 L -6 30 C -8.209139 30 -10 28.209141 -10 26 L -10 -6 C -10 -8.209141 -8.209139 -10 -6 -10 Z"/>
    <clipPath id="clipPath1">
        <path d="M 0 0 L 20 0 L 20 20 L 0 20 Z"/>
    </clipPath>
    <g id="Group" clip-path="url(#clipPath1)">
        <path id="path1" fill="#4285f4" stroke="none" d="M 19.6 10.227301 C 19.6 9.5182 19.5364 8.836399 19.4182 8.181801 L 10 8.181801 L 10 12.049999 L 15.3818 12.049999 C 15.15 13.299999 14.445499 14.3591 13.3864 15.068199 L 13.3864 17.577299 L 16.6182 17.577299 C 18.5091 15.836399 19.6 13.272699 19.6 10.227301 Z"/>
        <path id="path2" fill="#34a853" stroke="none" d="M 10 20 C 12.700001 20 14.9636 19.1045 16.618099 17.577299 L 13.386299 15.068199 C 12.4909 15.6682 11.3454 16.022699 10 16.022699 C 7.395399 16.022699 5.1909 14.263599 4.4045 11.9 L 1.0636 11.9 L 1.0636 14.4909 C 2.7091 17.7591 6.0909 20 10 20 Z"/>
        <path id="path3" fill="#fbbc04" stroke="none" d="M 4.4045 11.9 C 4.2045 11.299999 4.0909 10.6591 4.0909 10 C 4.0909 9.3409 4.2045 8.700001 4.4045 8.1 L 4.4045 5.5091 L 1.0636 5.5091 C 0.3864 6.8591 -0 8.3864 -0 10 C -0 11.6136 0.3864 13.1409 1.0636 14.4909 L 4.4045 11.9 Z"/>
        <path id="path4" fill="#e94235" stroke="none" d="M 10 3.977299 C 11.4681 3.977299 12.786301 4.4818 13.822701 5.4727 L 16.690901 2.6045 C 14.959101 0.9909 12.6954 0 10 0 C 6.0909 0 2.7091 2.2409 1.0636 5.5091 L 4.4045 8.1 C 5.1909 5.736401 7.395399 3.977299 10 3.977299 Z"/>
    </g>
</svg>
